<svg width="56" height="56" viewBox="0 0 56 56" fill="none" xmlns="http://www.w3.org/2000/svg">
  <defs>
    <linearGradient id="benefitAlwaysGradient" x1="10" y1="8" x2="46" y2="48" gradientUnits="userSpaceOnUse">
      <stop stop-color="#38BDF8"/>
      <stop offset="1" stop-color="#0EA5E9"/>
    </linearGradient>
  </defs>
  <rect width="56" height="56" rx="16" fill="url(#benefitAlwaysGradient)"/>
  <path d="M18 22C18 19.7909 19.7909 18 22 18H30C32.2091 18 34 19.7909 34 22V26C34 28.2091 32.2091 30 30 30H24L20 33V30H22C19.7909 30 18 28.2091 18 26V22Z" stroke="white" stroke-width="2.4" stroke-linecap="round" stroke-linejoin="round" fill="none"/>
  <path d="M34 26C36.2091 26 38 27.7909 38 30V32C38 34.2091 36.2091 36 34 36H31L27 39V36H26" stroke="white" stroke-width="2.4" stroke-linecap="round" stroke-linejoin="round"/>
</svg>

