<svg width="56" height="56" viewBox="0 0 56 56" fill="none" xmlns="http://www.w3.org/2000/svg">
  <defs>
    <linearGradient id="leadCaptureGradient" x1="10" y1="8" x2="46" y2="48" gradientUnits="userSpaceOnUse">
      <stop stop-color="#38BDF8"/>
      <stop offset="1" stop-color="#6366F1"/>
    </linearGradient>
  </defs>
  <rect width="56" height="56" rx="16" fill="url(#leadCaptureGradient)"/>
  <circle cx="28" cy="28" r="12" stroke="white" stroke-width="2.4" fill="none"/>
  <path d="M28 20V28L33 31" stroke="white" stroke-width="2.4" stroke-linecap="round" stroke-linejoin="round"/>
  <path d="M34 22C35.25 23.31 36 25.07 36 27C36 27.66 35.91 28.3 35.75 28.9" stroke="white" stroke-width="2.4" stroke-linecap="round"/>
  <path d="M22 34C20.75 32.69 20 30.93 20 29C20 28.34 20.09 27.7 20.25 27.1" stroke="white" stroke-width="2.4" stroke-linecap="round"/>
  <path d="M25 18H21C19.3431 18 18 19.3431 18 21V25" stroke="white" stroke-width="2.4" stroke-linecap="round"/>
  <path d="M31 38H35C36.6569 38 38 36.6569 38 35V31" stroke="white" stroke-width="2.4" stroke-linecap="round"/>
</svg>

